<svg width="25" height="25" viewBox="0 0 25 25" fill="none" xmlns="http://www.w3.org/2000/svg">
<path d="M11.5853 19.4488C12.0902 19.9537 12.9091 19.9537 13.414 19.4488L18.2906 14.5722C18.7955 14.0673 18.7955 13.2484 18.2906 12.7435C17.7858 12.2387 16.9668 12.2387 16.4619 12.7435L13.7928 15.4127V1.2931C13.7928 0.579203 13.2136 0 12.4997 0C11.7858 0 11.2066 0.579203 11.2066 1.2931V15.4127L8.53738 12.7435C8.03253 12.2387 7.21356 12.2387 6.70871 12.7435C6.20387 13.2484 6.20387 14.0673 6.70871 14.5722L11.5853 19.4488Z" fill="#66220F"/>
<path d="M23.7069 11.2069C22.993 11.2069 22.4138 11.7861 22.4138 12.5V22.4138H2.58621V12.5C2.58621 11.7861 2.007 11.2069 1.2931 11.2069C0.579203 11.2069 0 11.7861 0 12.5V22.8448C0 24.035 0.964978 25 2.15517 25H22.8448C24.035 25 25 24.035 25 22.8448V12.5C25 11.7861 24.4208 11.2069 23.7069 11.2069Z" fill="#66220F"/>
</svg>
