<svg width="22" height="22" viewBox="0 0 22 22" fill="none" xmlns="http://www.w3.org/2000/svg">
<g clip-path="url(#clip0_263_848)">
<path d="M11 0C4.93387 0 0 4.93387 0 11C0 17.0661 4.93387 22 11 22C17.0661 22 22 17.0661 22 11C22 4.93387 17.0661 0 11 0ZM11 19.8C6.14827 19.8 2.2 15.8517 2.2 11C2.2 6.14827 6.14827 2.2 11 2.2C15.8517 2.2 19.8 6.14827 19.8 11C19.8 15.8517 15.8517 19.8 11 19.8Z" fill="#66220F"/>
<path d="M8.8 8.79999L5.49707 16.5029L13.2 13.2L16.5029 5.49706L8.8 8.79999ZM11 12.1029C10.3899 12.1029 9.89707 11.6101 9.89707 11C9.89707 10.3899 10.3899 9.89706 11 9.89706C11.6101 9.89706 12.1029 10.3899 12.1029 11C12.1029 11.6101 11.6101 12.1029 11 12.1029Z" fill="#66220F"/>
</g>
<defs>
<clipPath id="clip0_263_848">
<rect width="22" height="22" fill="white"/>
</clipPath>
</defs>
</svg>
