<svg width="21" height="25" viewBox="0 0 21 25" fill="none" xmlns="http://www.w3.org/2000/svg">
<path d="M21 9.88034C21 9.34982 20.6686 8.8883 20.1919 8.67696C20.1783 8.49578 20.1601 8.31463 20.1329 8.12485C20.5233 7.88763 20.7821 7.47355 20.7821 6.9991C20.7821 6.26585 20.1601 5.67061 19.3839 5.6663C19.3067 5.50239 19.2159 5.33849 19.1206 5.17029C19.3022 4.946 19.4111 4.66994 19.4111 4.36801C19.4111 3.63478 18.7801 3.03523 18.0038 3.03523C17.8267 3.03523 17.6542 3.06975 17.4953 3.12579C17.3455 2.98779 17.1957 2.85837 17.0414 2.7333C17.0777 2.61684 17.0958 2.49608 17.0958 2.37098C17.0958 1.63775 16.4648 1.0382 15.6885 1.0382C15.3254 1.0382 14.9985 1.17191 14.7488 1.38757C14.5082 1.28838 14.2585 1.19779 13.9998 1.12015C13.816 -0.127942 11.9698 -0.425917 11.3758 0.701808C11.0671 0.693147 10.7493 0.710392 10.4134 0.76215C10.1637 0.386899 9.72337 0.136727 9.22401 0.136727C8.45226 0.136727 7.82123 0.736271 7.82123 1.46953C7.85864 1.68221 7.3373 1.76619 7.1494 1.91381C6.90423 1.71971 6.59098 1.60324 6.25051 1.60324C5.47421 1.60324 4.84772 2.20278 4.84772 2.93602C4.84772 3.06543 4.86587 3.19483 4.90674 3.31558C4.69336 3.47088 4.47546 3.63478 4.26211 3.80298C3.07027 3.13673 1.66479 4.42779 2.32823 5.58437C1.86753 5.99544 1.97894 6.31132 1.3976 6.19251C-0.157312 6.20401 -0.540259 8.23536 0.891517 8.76654C1.02734 9.13542 1.39088 9.54652 2.31456 9.64742C2.39627 10.303 2.99097 10.8163 3.70371 10.8163C4.24848 10.8163 4.71608 10.523 4.95213 10.096C5.10195 10.1434 5.24722 10.1952 5.39249 10.2513C5.36071 10.3548 5.34708 10.4669 5.34708 10.5791C5.34708 11.3123 5.97356 11.9119 6.74986 11.9119C7.09488 11.9119 7.41266 11.7911 7.6578 11.597C7.69929 11.6304 7.73874 11.6669 7.7795 11.7021C7.21363 12.5458 7.92311 13.7424 8.98341 13.7148C9.12866 13.7148 9.27393 13.6932 9.40557 13.6544C9.50546 13.814 9.59626 13.9822 9.68704 14.1547C9.40557 14.3963 9.22855 14.75 9.22855 15.1382C9.22855 15.8455 9.81416 16.4278 10.5496 16.4666C10.6 16.6541 10.6413 16.8462 10.6779 17.0423C10.3126 17.3659 10.0806 17.823 10.0806 18.3335C10.0806 19.1614 10.6845 19.8531 11.4946 20.0469V21.1216H10.0485C9.79776 21.1216 9.59449 21.3145 9.59449 21.5529C9.59449 21.7913 9.79776 21.9842 10.0485 21.9842H11.4946V24.5755C11.5014 25.1322 12.3919 25.1507 12.4025 24.5755V21.9842H13.8487C14.0994 21.9842 14.3027 21.7913 14.3027 21.5529C14.3027 21.3145 14.0994 21.1216 13.8487 21.1216H12.4025V20.0469C13.0916 19.8821 13.6318 19.3583 13.7772 18.6944C13.9658 18.5871 14.1813 18.4725 14.3947 18.3256C14.6217 18.4809 14.9032 18.5715 15.2028 18.5715C15.9745 18.5715 16.6056 17.972 16.6056 17.2387C16.6507 16.7969 16.2535 16.6661 16.6146 16.3847C17.4983 16.7232 18.5291 16.0433 18.5077 15.1381C18.5077 14.8362 18.4033 14.5602 18.2262 14.3402C18.3805 14.1677 18.4174 13.8652 18.7029 13.9477C19.4792 13.9477 20.1102 13.3482 20.1102 12.6149C20.1102 12.2396 19.9468 11.8989 19.6789 11.6574C19.7425 11.4978 19.8015 11.3425 19.8514 11.1915C20.5051 11.0751 21 10.536 21 9.88034ZM11.9486 19.2434C10.6829 19.2118 10.6827 17.4556 11.9486 17.4242C13.2147 17.4558 13.214 19.212 11.9486 19.2434ZM18.7029 11.2821C17.4932 11.257 16.8369 12.73 17.6906 13.5294C17.6225 13.6372 17.5544 13.745 17.4772 13.8528C17.3592 13.8226 17.2321 13.8054 17.1004 13.8054C16.3286 13.8054 15.6976 14.4006 15.6976 15.1382C15.6976 15.397 15.7748 15.6342 15.911 15.8369C15.8611 15.8973 15.8066 15.9534 15.7476 16.0095C14.8533 15.6324 13.7741 16.3076 13.7955 17.2387C13.7709 17.4402 13.9592 17.65 13.6988 17.7338C13.4384 17.0524 12.7558 16.5615 11.9486 16.5615C11.8012 16.5573 11.6461 16.593 11.5166 16.609C11.4893 16.4839 11.4575 16.3588 11.4212 16.238C12.556 15.5327 12.0032 13.7929 10.6358 13.8054C10.3976 13.8357 10.3025 13.2881 10.141 13.1369C10.7904 12.2978 10.0895 11.0174 8.98336 11.0493C8.80489 11.0495 8.635 11.0794 8.47523 11.1418C8.24146 10.8993 8.08077 10.9555 8.15268 10.5791C8.19081 9.49827 6.7664 8.84949 5.89638 9.51805C5.63309 9.41018 5.36072 9.31099 5.08381 9.22472C4.86587 8.05102 3.12352 7.75878 2.5057 8.7972C2.29914 8.78223 2.14558 8.75127 2.03542 8.71013C2.48808 8.48547 2.80033 8.03769 2.80033 7.52099C2.80033 7.21908 2.69593 6.94303 2.51433 6.72305C2.6596 6.54622 2.81396 6.36072 2.98648 6.17526C3.88255 6.57639 4.99141 5.91195 4.97031 4.95891C4.97032 4.78209 4.934 4.60955 4.86138 4.45428C5.05203 4.30333 5.2427 4.15667 5.43335 4.01864C5.66488 4.17394 5.94634 4.26882 6.25052 4.26882C7.02679 4.26882 7.65328 3.66927 7.65328 2.93602C7.53419 2.53706 7.90906 2.53755 8.19808 2.37097C8.45227 2.63843 8.81999 2.80231 9.22402 2.80231C9.95037 2.80231 10.5496 2.2761 10.6223 1.60324C10.8195 1.56722 11.0382 1.56308 11.2306 1.56011C11.3486 2.1812 11.9251 2.65567 12.6152 2.65567C13.1372 2.65567 13.5912 2.38393 13.8318 1.97849C14.0681 2.07331 14.389 2.06359 14.2857 2.37099C14.2504 3.43837 15.6492 4.09274 16.5193 3.44496C16.6146 3.52263 16.71 3.60459 16.8008 3.68654C16.6737 3.88493 16.601 4.11786 16.601 4.36801C16.601 5.10127 17.2321 5.70082 18.0038 5.70082C18.1264 5.70082 18.2489 5.68357 18.3624 5.65769C18.4215 5.75689 18.4714 5.85177 18.5213 5.94667C17.5222 6.63498 18.0047 8.24871 19.2432 8.32325C19.2568 8.40951 19.2658 8.49578 19.2704 8.58205C18.653 8.72439 18.1899 9.25059 18.1899 9.88033C18.1899 10.3936 18.4941 10.8379 18.939 11.0622C18.8853 11.1882 18.8877 11.3344 18.7029 11.2821Z" fill="#66220F"/>
</svg>
