<svg width="25" height="17" viewBox="0 0 25 17" fill="none" xmlns="http://www.w3.org/2000/svg">
<g clip-path="url(#clip0_263_853)">
<path d="M16.156 9.50346L14.0679 11.5354C13.221 12.3595 11.7308 12.3774 10.866 11.5354L8.7778 9.50346L1.27734 16.8002C1.55638 16.9254 1.86415 17 2.1914 17H22.7419C23.0692 17 23.3769 16.9254 23.656 16.8002L16.156 9.50346Z" fill="#66220F"/>
<path d="M22.7419 -1.90735e-06H2.1914C1.86415 -1.90735e-06 1.55638 0.0746092 1.27734 0.199748L9.29205 7.99708C9.29205 7.99708 9.29302 7.99755 9.294 7.99802C9.29497 7.9985 9.29448 7.99944 9.29448 7.99944L11.9003 10.5348C12.1769 10.803 12.7569 10.803 13.0335 10.5348L15.6388 7.99991C15.6388 7.99991 15.6393 7.99897 15.6398 7.99802C15.6398 7.99802 15.6408 7.99755 15.6418 7.99708L23.656 0.199748C23.3769 0.0746092 23.0692 -1.90735e-06 22.7419 -1.90735e-06Z" fill="#66220F"/>
<path d="M0.233263 1.19046C0.0886302 1.47379 0 1.78829 0 2.12499V14.875C0 15.2117 0.0886302 15.5262 0.232776 15.8095L7.74589 8.50046L0.233263 1.19046Z" fill="#66220F"/>
<path d="M24.6996 1.19046L17.1865 8.50046L24.6996 15.81C24.8443 15.5267 24.9329 15.2122 24.9329 14.8755V2.12499C24.9329 1.78829 24.8443 1.47379 24.6996 1.19046Z" fill="#66220F"/>
</g>
<defs>
<clipPath id="clip0_263_853">
<rect width="24.9333" height="17" fill="white"/>
</clipPath>
</defs>
</svg>
