<svg width="30" height="24" viewBox="0 0 30 24" fill="none" xmlns="http://www.w3.org/2000/svg">
<path d="M29.6631 1.06864C29.3344 0.971376 21.5972 -1.25514 14.9997 1.02118C8.40335 -1.25573 0.665612 0.971962 0.336322 1.06864C0.136521 1.12723 0 1.31004 0 1.51804V20.2677C0 20.4153 0.0691393 20.5548 0.187496 20.6427C0.306439 20.7311 0.459366 20.7593 0.60116 20.7171C0.679674 20.6942 8.50472 18.4454 14.8427 20.7089C14.8931 20.727 14.947 20.7364 15.0003 20.7364C15.0536 20.7364 15.1069 20.727 15.1579 20.7095C16.2483 20.3198 17.4583 20.0468 18.7502 19.881V23.0801C18.7502 23.253 18.8451 23.4118 18.9975 23.4938C19.1492 23.5752 19.335 23.5659 19.4785 23.4704L20.6252 22.7063L21.7713 23.4704C21.8498 23.5231 21.9406 23.5489 22.0314 23.5489C22.1076 23.5489 22.1832 23.5307 22.2529 23.4938C22.4052 23.4123 22.5001 23.2536 22.5001 23.0801V19.7099C26.3098 19.8259 29.3672 20.7083 29.3988 20.7177C29.5406 20.7593 29.693 20.7317 29.8125 20.6433C29.9309 20.5554 30 20.4159 30 20.2683V1.51863C30 1.31063 29.8629 1.12782 29.6637 1.06923L29.6631 1.06864ZM0.937482 19.6577V1.8778C1.15486 1.82214 1.47536 1.7448 1.87496 1.65867V5.26797C1.87496 5.52695 2.08472 5.73671 2.3437 5.73671C2.60268 5.73671 2.81245 5.52695 2.81245 5.26797V1.47234C5.53759 0.972548 10.3228 0.458691 14.531 1.85554V17.8115C8.42386 16.4838 4.32413 17.3129 2.81245 17.747V7.14352C2.81245 6.88454 2.60268 6.67478 2.3437 6.67478C2.08472 6.67478 1.87496 6.88454 1.87496 7.14352V18.3933C1.87496 18.5492 1.95231 18.6945 2.08062 18.7812C2.15914 18.8345 2.25113 18.862 2.3437 18.862C2.40288 18.862 2.46206 18.8515 2.51772 18.8281C2.56284 18.8105 7.01646 17.0873 14.531 18.7683V19.6273C9.0215 17.9128 2.86752 19.1773 0.937482 19.6583V19.6577ZM15.4684 19.6261V18.7683C16.6374 18.507 17.7331 18.3277 18.7496 18.2117V18.9353C17.586 19.0782 16.4868 19.3091 15.4684 19.6255V19.6261ZM20.8847 21.753C20.7271 21.6481 20.5226 21.6481 20.365 21.753L19.6871 22.2042V18.1197C20.3516 18.0664 20.9756 18.0412 21.5621 18.0359V22.2042L20.8847 21.753ZM29.0619 19.6589C27.9633 19.3864 25.4749 18.8568 22.4996 18.7706V18.0441C25.6741 18.1349 27.4542 18.8169 27.4823 18.8281C27.6264 18.8849 27.7905 18.8673 27.9194 18.78C28.0471 18.6933 28.1245 18.548 28.1245 18.3927V2.45611C28.1245 2.19713 27.9147 1.98737 27.6557 1.98737C27.3967 1.98737 27.187 2.19713 27.187 2.45611V17.747C25.6759 17.3134 21.575 16.4844 15.4684 17.8115V1.85554C20.9949 0.0210039 27.5209 1.48406 29.0619 1.8778V19.6589Z" fill="#66220F"/>
<path d="M20.624 1.98737C20.1072 1.98737 19.6865 2.40807 19.6865 2.92485V3.86234H18.749C18.2322 3.86234 17.8115 4.28303 17.8115 4.79982V5.7373C17.8115 6.25409 18.2322 6.67478 18.749 6.67478H19.6865V9.95597C19.6865 10.4728 20.1072 10.8934 20.624 10.8934H21.5615C22.0782 10.8934 22.4989 10.4728 22.4989 9.95597V6.67478H23.4364C23.9532 6.67478 24.3739 6.25409 24.3739 5.7373V4.79982C24.3739 4.28303 23.9532 3.86234 23.4364 3.86234H22.4989V2.92485C22.4989 2.40807 22.0782 1.98737 21.5615 1.98737H20.624ZM22.0302 4.79982H23.4364V5.7373H22.0302C21.7712 5.7373 21.5615 5.94706 21.5615 6.20604V9.95597H20.624V6.20604C20.624 5.94706 20.4142 5.7373 20.1552 5.7373H18.749V4.79982H20.1552C20.4142 4.79982 20.624 4.59006 20.624 4.33108V2.92485H21.5615V4.33108C21.5615 4.59006 21.7712 4.79982 22.0302 4.79982Z" fill="#66220F"/>
<path d="M17.7552 12.772C17.4985 12.8036 17.3157 13.038 17.3485 13.2952C17.3802 13.5518 17.6128 13.7346 17.8718 13.7018C17.9087 13.6977 21.5971 13.246 24.7781 13.7006C24.8003 13.7042 24.8232 13.7053 24.8449 13.7053C25.0746 13.7053 25.2749 13.5366 25.3083 13.3034C25.3447 13.0468 25.1665 12.81 24.9105 12.7731C21.6047 12.2997 17.9104 12.752 17.7552 12.772Z" fill="#66220F"/>
<path d="M24.9111 14.6481C21.6047 14.1752 17.9104 14.6282 17.7552 14.6469C17.4985 14.6786 17.3157 14.9129 17.3485 15.1702C17.3813 15.4274 17.6128 15.6114 17.8718 15.5768C17.9087 15.5721 21.5971 15.1209 24.7781 15.5756C24.8003 15.5791 24.8232 15.5803 24.8449 15.5803C25.0746 15.5803 25.2749 15.4116 25.3083 15.1784C25.3447 14.9217 25.1665 14.6844 24.9111 14.6475V14.6481Z" fill="#66220F"/>
<path d="M4.42643 4.28186C4.45338 4.26897 7.20372 2.97583 13.0196 4.31819C13.0554 4.32639 13.0911 4.33049 13.1257 4.33049C13.339 4.33049 13.5317 4.18401 13.5821 3.96722C13.6401 3.71468 13.4825 3.46332 13.2306 3.40473C7.04494 1.97683 4.13054 3.38188 4.00925 3.44223C3.7784 3.55766 3.68582 3.83714 3.79949 4.06858C3.91375 4.30061 4.19499 4.39553 4.42585 4.28186H4.42643Z" fill="#66220F"/>
<path d="M4.42643 6.15684C4.45338 6.14395 7.20372 4.85022 13.0196 6.19316C13.0554 6.20137 13.0911 6.20547 13.1257 6.20547C13.339 6.20547 13.5317 6.05899 13.5821 5.84219C13.6401 5.58966 13.4825 5.3383 13.2306 5.27971C7.04494 3.85239 4.13054 5.25685 4.00925 5.3172C3.7784 5.43263 3.68582 5.71212 3.79949 5.94356C3.91375 6.175 4.19499 6.27051 4.42585 6.15684H4.42643Z" fill="#66220F"/>
<path d="M4.42643 8.03181C4.45338 8.01833 7.20372 6.72578 13.0196 8.06814C13.0554 8.07634 13.0911 8.08044 13.1257 8.08044C13.339 8.08044 13.5317 7.93396 13.5821 7.71717C13.6401 7.46463 13.4825 7.21327 13.2306 7.15468C7.04494 5.72678 4.13054 7.13124 4.00925 7.19218C3.7784 7.3076 3.68582 7.58709 3.79949 7.81853C3.91375 8.04997 4.19499 8.14548 4.42585 8.03181H4.42643Z" fill="#66220F"/>
<path d="M4.42643 9.90675C4.45338 9.89328 7.20372 8.60014 13.0196 9.94308C13.0554 9.95128 13.0911 9.95538 13.1257 9.95538C13.339 9.95538 13.5317 9.8089 13.5821 9.59211C13.6401 9.33958 13.4825 9.08822 13.2306 9.02962C7.04494 7.60172 4.13054 9.00677 4.00925 9.06712C3.7784 9.18255 3.68582 9.46204 3.79949 9.69348C3.91375 9.92492 4.19499 10.0204 4.42585 9.90675H4.42643Z" fill="#66220F"/>
<path d="M4.42643 11.7817C4.45338 11.7688 7.20372 10.4751 13.0196 11.818C13.0554 11.8262 13.0911 11.8303 13.1257 11.8303C13.339 11.8303 13.5317 11.6839 13.5821 11.4671C13.6401 11.2145 13.4825 10.9632 13.2306 10.9046C7.04494 9.47667 4.13054 10.8817 4.00925 10.9421C3.7784 11.0575 3.68582 11.337 3.79949 11.5684C3.91375 11.7999 4.19499 11.8954 4.42585 11.7817H4.42643Z" fill="#66220F"/>
<path d="M4.42643 13.6567C4.45338 13.6438 7.20372 12.3501 13.0196 13.693C13.0554 13.7012 13.0911 13.7053 13.1257 13.7053C13.339 13.7053 13.5317 13.5589 13.5821 13.3421C13.6401 13.0895 13.4825 12.8382 13.2306 12.7796C7.04494 11.3517 4.13054 12.7561 4.00925 12.8171C3.7784 12.9325 3.68582 13.212 3.79949 13.4434C3.91375 13.6755 4.19499 13.7704 4.42585 13.6567H4.42643Z" fill="#66220F"/>
<path d="M4.42643 15.5317C4.45338 15.5188 7.20372 14.225 13.0196 15.568C13.0554 15.5762 13.0911 15.5803 13.1257 15.5803C13.339 15.5803 13.5317 15.4338 13.5821 15.217C13.6401 14.9645 13.4825 14.7131 13.2306 14.6545C7.04494 13.2272 4.13054 14.6317 4.00925 14.692C3.7784 14.8074 3.68582 15.0869 3.79949 15.3184C3.91375 15.5504 4.19499 15.6453 4.42585 15.5317H4.42643Z" fill="#66220F"/>
<rect x="20.5713" y="2.57143" width="1.71429" height="7.71429" fill="#66220F"/>
<rect x="18" y="6" width="1.71429" height="6" transform="rotate(-90 18 6)" fill="#66220F"/>
</svg>
